<svg width="41" height="43" viewBox="0 0 41 43" fill="none" xmlns="http://www.w3.org/2000/svg">
<g id="Frame" clip-path="url(#clip0_1_111)">
<path id="_5" d="M19.8674 42.7115L10.775 34.2118L12.5034 32.3639L18.6015 38.0643V21.2998H21.1333V38.0643L27.2315 32.3639L28.9598 34.2118L19.8674 42.7115ZM30.5823 30.2497H26.091V27.7206H30.5823C32.4988 27.7206 34.3016 26.9728 35.6655 25.6103C37.0293 24.2479 37.7779 22.4469 37.7779 20.5324C37.7779 17.0911 35.3166 14.1234 31.9266 13.4774L31.0056 13.3013L30.9076 12.3695C30.6568 10.0204 29.5869 7.79272 27.8938 6.09748C25.9107 4.11645 23.2849 3.02413 20.5023 3.02413C17.7197 3.02413 15.0939 4.11645 13.1108 6.09748C11.4178 7.79272 10.3439 10.0165 10.097 12.3695L9.99902 13.3013L9.07803 13.4774C7.6593 13.7476 6.36598 14.4366 5.33917 15.4624C3.97531 16.8249 3.22675 18.6258 3.22675 20.5364C3.22675 24.4984 6.45612 27.7245 10.4223 27.7245H14.2787V30.2536H10.4223C5.05699 30.2536 0.694992 25.8961 0.694992 20.5364C0.694992 17.9524 1.71005 15.5133 3.54812 13.6771C4.71603 12.5104 6.13867 11.6687 7.70633 11.2145C8.16879 8.62272 9.43467 6.20319 11.3237 4.31612C13.781 1.8496 17.0417 0.49498 20.5023 0.49498C23.9629 0.49498 27.2197 1.8496 29.6849 4.30828C31.5739 6.19536 32.8358 8.61489 33.2983 11.2067C37.4134 12.4008 40.3096 16.1867 40.3096 20.5324C40.3096 23.1203 39.2946 25.5594 37.4565 27.3995C35.6145 29.2396 33.1729 30.2497 30.5823 30.2497Z" fill="#26358B"/>
</g>
<defs>
<clipPath id="clip0_1_111">
<rect width="39.6186" height="42.2165" fill="white" transform="translate(0.690887 0.49498)"/>
</clipPath>
</defs>
</svg>
