<svg width="37" height="37" viewBox="0 0 37 37" fill="none" xmlns="http://www.w3.org/2000/svg">
<g id="LinkedIn">
<rect id="Rectangle 99" width="37" height="37" rx="8" fill="white"/>
<path id="Vector" d="M9.32623 13.7921H13.3403V25.4533H9.32623V13.7921ZM11.3262 8C12.6169 8 13.6524 8.93546 13.6524 10.1016C13.6524 11.2677 12.6169 12.2031 11.3262 12.2031C10.0354 12.2031 9 11.2549 9 10.1016C9 8.94827 10.0354 8 11.3262 8Z" fill="#26358B"/>
<path id="Vector_2" d="M15.8511 13.7918H19.695V15.3808H19.7517C20.2907 14.4582 21.5956 13.4971 23.553 13.4971C27.6097 13.4971 28.3614 15.9062 28.3614 19.0457V25.4402H24.3473V19.7762C24.3473 18.4178 24.319 16.6879 22.2623 16.6879C20.2056 16.6879 19.851 18.1615 19.851 19.6865V25.453H15.8369V13.7918H15.8511Z" fill="#26358B"/>
</g>
</svg>
