<svg width="96" height="109" viewBox="0 0 96 109" fill="none" xmlns="http://www.w3.org/2000/svg">
<path d="M87.4184 84.7384C87.4184 84.7384 93.4483 81.1753 93.4483 74.1404V34.2153C93.4483 34.2153 93.4483 27.1804 87.4184 23.6173L54.254 3.88317C54.254 3.88317 48.2241 0.320053 42.1942 3.88317L9.02988 23.7087C9.02988 23.7087 3 27.2718 3 34.3067V74.2318C3 74.2318 3 81.2667 9.02988 84.8298L42.1942 104.655C42.1942 104.655 48.2241 108.218 54.254 104.655L87.4184 84.7384Z" fill="white"/>
<path fill-rule="evenodd" clip-rule="evenodd" d="M42.1943 3.88319C48.2241 0.320078 54.254 3.88319 54.254 3.88319L87.4184 23.6174C93.4483 27.1805 93.4483 34.2153 93.4483 34.2153V74.1405C93.4483 81.1753 87.4184 84.7385 87.4184 84.7385L54.254 104.655C48.2241 108.218 42.1943 104.655 42.1943 104.655L9.02989 84.8298C3.00001 81.2667 3.00001 74.2318 3.00001 74.2318V34.3067C3.00001 27.2718 9.02989 23.7087 9.02989 23.7087C7.85982 21.7286 7.85895 21.7291 7.85807 21.7296L41.0242 1.90304C44.6619 -0.246537 48.2934 -0.228906 50.9298 0.290383C52.2465 0.54973 53.3409 0.93768 54.112 1.26315C54.4992 1.42659 54.8098 1.57633 55.0315 1.68989C55.1426 1.74674 55.2317 1.79473 55.2975 1.83112C55.3305 1.84932 55.3576 1.86464 55.3787 1.87674L55.406 1.89244L55.4162 1.8984L55.4223 1.90202C55.4232 1.90255 55.4241 1.90306 54.254 3.88319L55.4241 1.90306L55.4302 1.90664L88.5885 21.6372C88.5897 21.6379 88.5909 21.6387 88.5921 21.6394C92.2133 23.7806 93.9992 26.9595 94.8708 29.5083C95.307 30.7838 95.5247 31.928 95.6344 32.7601C95.6894 33.1778 95.7178 33.5218 95.7325 33.7704C95.7399 33.8949 95.7438 33.9959 95.7459 34.0709C95.747 34.1083 95.7476 34.1393 95.7479 34.1635L95.7482 34.1946L95.7483 34.2063L95.7483 34.2112V34.2133C95.7483 34.2143 95.7483 34.2153 93.4483 34.2153H95.7483V74.1405C95.7483 78.3595 93.9307 81.5182 92.1844 83.5688C91.3113 84.594 90.4399 85.3633 89.7811 85.8807C89.4504 86.1404 89.1695 86.3396 88.9633 86.4786C88.8601 86.5482 88.7752 86.603 88.7118 86.6429C88.6801 86.6629 88.6537 86.6792 88.633 86.6918L88.6063 86.7079L88.6025 86.7102L88.5963 86.714L88.5902 86.7176L55.4311 106.631L55.4241 106.635C51.7864 108.785 48.1548 108.767 45.5184 108.248C44.2018 107.989 43.1074 107.601 42.3363 107.275C41.949 107.112 41.6385 106.962 41.4167 106.849C41.3057 106.792 41.2166 106.744 41.1507 106.707C41.1178 106.689 41.0907 106.674 41.0695 106.662L41.0423 106.646L41.0321 106.64L41.0259 106.637C41.025 106.636 41.0242 106.635 42.1943 104.655L41.0242 106.635L41.0141 106.63L7.85982 86.81C7.85813 86.809 7.85645 86.808 7.85476 86.807C4.23451 84.6658 2.44897 81.4874 1.57748 78.9389C1.1413 77.6634 0.92354 76.5192 0.813931 75.6871C0.7589 75.2694 0.730486 74.9254 0.715794 74.6768C0.708439 74.5523 0.704497 74.4512 0.702392 74.3763C0.701339 74.3388 0.700744 74.3079 0.700413 74.2837L0.700088 74.2525L0.700028 74.2409L0.700016 74.236L0.700013 74.2339C0.700012 74.2328 0.700012 74.2318 3.00001 74.2318H0.700012V34.3067C0.700012 30.0877 2.51759 26.929 4.26389 24.8784C5.13698 23.8532 6.00841 23.0839 6.66714 22.5665C6.99784 22.3068 7.27881 22.1076 7.485 21.9685C7.58822 21.8989 7.67307 21.8442 7.73647 21.8043C7.76818 21.7843 7.79457 21.768 7.81524 21.7554L7.84194 21.7392L7.84976 21.7346L9.02989 23.7087" fill="#26358C"/>
</svg>
